<?xml version="1.0" encoding="utf-8"?>
<!-- Generator: Adobe Illustrator 26.0.3, SVG Export Plug-In . SVG Version: 6.00 Build 0)  -->
<svg version="1.1" id="Layer_1" xmlns="http://www.w3.org/2000/svg" xmlns:xlink="http://www.w3.org/1999/xlink" x="0px" y="0px"
	 viewBox="0 0 288 288" style="enable-background:new 0 0 288 288;" xml:space="preserve">
<style type="text/css">
	.st0{fill:#BCBEC0;}
	.st1{fill:none;stroke:#000000;stroke-width:4.8968;}
	.st2{fill:#58B7DD;}
</style>
<g>
	<path class="st0" d="M20.7,120.93h181.84c0,0,22.45-14.4,9.21-37.97c0,0-10.36-21.86-32.25-17.26c0,0,2.33-42.58-34.52-48.33
		c0,0-22.99-8.08-36.82,13.78c0,0-40.25-19.56-55.24,24.19c0,0-21.84-6.9-36.8,11.51c0,0-14.98,16.11,1.13,33.37
		C17.25,100.22-3.44,116.33,20.7,120.93"/>
	<path class="st1" d="M20.7,120.93h181.84c0,0,22.45-14.4,9.21-37.97c0,0-10.36-21.86-32.25-17.26c0,0,2.33-42.58-34.52-48.33
		c0,0-22.99-8.08-36.82,13.78c0,0-40.25-19.56-55.24,24.19c0,0-21.84-6.9-36.8,11.51c0,0-14.98,16.11,1.13,33.37
		C17.25,100.22-3.44,116.33,20.7,120.93z"/>
	<path class="st0" d="M83.76,150.03H265.6c0,0,22.45-14.37,9.23-37.97c0,0-10.38-21.86-32.24-17.26c0,0,2.3-42.58-34.52-48.33
		c0,0-23.02-8.08-36.82,13.81c0,0-40.28-19.56-55.26,24.17c0,0-21.84-6.9-36.8,11.51c0,0-14.96,16.11,1.13,33.37
		C80.31,129.32,59.62,145.45,83.76,150.03"/>
	<path class="st1" d="M83.76,150.03H265.6c0,0,22.45-14.37,9.23-37.97c0,0-10.38-21.86-32.24-17.26c0,0,2.3-42.58-34.52-48.33
		c0,0-23.02-8.08-36.82,13.81c0,0-40.28-19.56-55.26,24.17c0,0-21.84-6.9-36.8,11.51c0,0-14.96,16.11,1.13,33.37
		C80.31,129.32,59.62,145.45,83.76,150.03z"/>
	<path class="st2" d="M126,206.21c0,0,5.26-3.11,2.45-4.46c-2.84-1.32-5.26-4.43-1.91-8.2c2.69-2.4,5.39-1.08,6.07-0.78l1.89-1.08
		l-0.15-4.16c0,0,0.39-3.23,2.94-1.35c2.57,1.89,3.38,2.96,3.08,5.51c-0.25,2.57,0.42,3.62,0.42,3.62l4.43,2.69l1.22-2.55
		l-0.15-2.99c0,0-0.27-3.87,2.28-1.86c2.54,2.01,4.45,3.89,4.45,3.89s0.81,0.81,0.66,3.35c-0.12,2.57,1.35,4.97,4.04,5.51
		c2.67,0.54,3.6,1.22,3.89-1.62c0.27-2.82,1.47-2.01,2.42-1.74c0.93,0.27,3.75,0.81,3.09-3.89c-0.69-4.7-2.69-3.89-4.31-4.7
		c-1.64-0.81-2.42-1.47-3.23-3.77c-0.78-2.28-1.59-4.16-1.59-4.16s-0.54-2.28,1.86-1.22c3.11,1.37,4.19,1.91,4.19,1.91
		s2.01,0.54,2.13-1.76c0.12-2.28-0.12-4.41-2.13-4.7c-2.03-0.27-5.65-1.89-6.19-5.51c-0.54-3.62,1.08-2.96,2.01-2.55
		c0.95,0.39,6.07,3.62,5.51,0.51c-0.54-3.06,2.42-6.29,5.51-6.02c3.09,0.27,4.58,2.42,4.58,4.16l2.55,1.62l3.09-2.15l2.45,0.54
		l-2.45,6.32l-3.6,2.69l-0.56,2.55l0.29,2.69h2.37l3.94-2.42c0,0,2.67-1.47,1.86,2.96c-0.81,4.43-0.54,2.99-0.54,2.99
		s-0.44,3.16-2.67,3.6l-3.4,4.28c0.15,1.89-0.78,6.05,3.4,4.97l2.47,0.42c0.64,2.15,1.44,3.67,3.79,1.89
		c2.33-1.81,3.75-1.44,3.38-5.66c-0.37-4.19,0.17-4.92,1.45-6.1l2.52-2.96l2.5-0.51l0.44,5.63c0,0,0.2,2.62,2.77,0.71
		c2.59-1.89,1.98-1.44,1.98-1.44l0.78-2.3l0.1-5.36l2.69-3.53l2.13,0.81l0.49,4.92c0,0,0.34,2.35,2.84,0.64
		c2.52-1.71,5.65-0.78,7.08,1.89c1.44,2.69-0.88,5.73-1.79,6.37l-0.27,2.4l4.41,2.15l-0.2,2.42l-3.43,1.52l-2.57-0.64l-3.57-1.86
		c0,0-0.83-1.25-3.67,0.81c-2.86,2.06-1.79,1.25-1.79,1.25s-1.18,1.25,1.25,2.33c2.4,1.08,4.14,1.89,4.14,1.89s2.03,1.62-0.37,2.69
		c-2.45,1.08-4.68,1.89-4.68,1.89s-1.25,0.44-3.57-0.81c-2.33-1.27-4.75-2.25-6.46-0.71c0,0-5.8,3.21-2.4,4.82
		c3.38,1.59,1.59,2.25,0.98,3.13l-0.54,3.33c1.62,0.78,3.6,3.21,6.73,1.42c0,0,2.91-3.26,6.66-2.18l3.75,1.05
		c0,0,2.86,0.56-0.32,2.91l-3.18,2.37c0,0-1.13,0.91,1.88,2.28c3.01,1.37,2.52,1.32,4.65,0.17l2.77-1.96c0,0,2.01-1.47,6.64,0.49
		l-2.67,3.67c0,0-4.06,2.18-1.79,3.16c2.25,0.95,5.36,4.14,2.25,7.49c-3.08,3.33-3.72,2.67-5.12,1.96c-1.37-0.73-2.6-1.22-2.67,1.69
		c-0.1,2.94-0.81,4.99-1.71,4.73l-3.6-2.52c0,0-0.64,0.07-0.64-2.35c0-2.45,0.2-4.46-1.47-5.46l-3.09-1.4c0,0-1.71-0.98-1.71,2.3
		c0,3.26,0.42,4.14,0.42,4.14l-2.03,0.98l-4.65-3.82c0,0-0.91-0.17-0.98-3.53c-0.07-3.31-0.25-4.6-2.84-5.58
		c-2.6-0.98-4.63-1.4-4.58,0.39l-1.52,2.86c-1.89-0.34-4.26-1.47-4.16,1.47c0.1,2.91,0.49,3.65,0.49,3.65s0.07,1.71,2.86,2.69
		c2.74,0.98,4.21,3.01,4.97,5.75c0.71,2.79,1.69,4.82-0.27,4.48l-4.8-1.93c0,0-2.62-1.54-2.45,1.71c0.17,3.23,1.64,4.48,3.18,4.95
		l4.48,3.43l-0.69,4.33l-3.97-1.74l-2.03,0.49c-0.07,1.15-0.07,6.76-5.22,6.59c-5.12-0.15-4.45-3.4-5.21-5.93h-2.08l-3.6,2.69
		c0,0-2.42,0.81-2.13-1.81c0.34-2.6,0.34-3.82,2.2-5.04l3.35-2.74l1.05-1.98l-0.34-3.57c0,0,0.27-2.35-2.74-0.15
		c-3.01,2.18-3.77,2.6-3.77,2.6s-2.42,1.13-1.79-2.2c0.64-3.35,0.91-5.44,0.91-5.44l2.2-1.98c1.62-0.88,4.24-1.76,4.06-5.44
		c-0.17-3.67-0.98-5.12-3.09-4.06c-2.13,1.05-3.35,1.22-3.18-1.05c0.15-2.3-2.2-2.86-4.55-0.34l-2.35,3.18l0.32,4.06
		c0,0,0.49,1.3-2.72,4.41l-2.74,2.84c0,0-1.79,0.81-1.86-2.03c0,0,0.95-6.19-1.47-5.14c-2.45,1.08-3.5,2.06-3.5,2.06l-0.32,1.96
		v4.63l-2.52,4.21l-3.11-1.62c0-1.47-0.15-6.34-2.35-3.99c-2.2,2.37-5.95,0.39-7.1-1.69c-1.13-2.13-1.47-4.73,1.54-6.93
		c3.01-2.2-0.32-1.79-1.13-2.45l-3.33-1.79c0,0-1.47-1.37,1.3-2.6c2.77-1.22,4.31-1.32,6.17-0.1l5.8,0.25
		c1.45-1.47,2.67-2.6,0.32-3.82s-5.95-2.6-2.42-4.14c3.48-1.57,4.7-2.03,4.7-2.03s0.59-0.17,3.99,1.13c3.43,1.3,4.55,0.64,6.76-1.05
		v-3.92l-0.07-3.01l-1.64-3.82c-1.89-0.66-3.18-1.86-6.59,0.88c-2.54,2.03-4.31,1.25-5.46,1.05c-1.15-0.15-6.66-1.62-3.01-3.89
		c0,0,5.29-2.91,2.2-4.48c-3.08-1.54-3.08-2.18-5.46-0.49c-2.35,1.71-3.75,2.52-3.75,2.52l-5.36-0.88L126,206.21z"/>
</g>
</svg>
