<?xml version="1.0" encoding="utf-8"?>
<!-- Generator: Adobe Illustrator 26.0.3, SVG Export Plug-In . SVG Version: 6.00 Build 0)  -->
<svg version="1.1" id="Layer_1" xmlns="http://www.w3.org/2000/svg" xmlns:xlink="http://www.w3.org/1999/xlink" x="0px" y="0px"
	 viewBox="0 0 288 288" style="enable-background:new 0 0 288 288;" xml:space="preserve">
<style type="text/css">
	.st0{fill:#FFF200;}
	.st1{fill:none;stroke:#000000;stroke-width:6.3105;}
</style>
<g>
	<path class="st0" d="M211.24,142.03c0,36.7-29.72,66.42-66.42,66.42c-36.7,0-66.42-29.72-66.42-66.42
		c0-36.66,29.72-66.42,66.42-66.42C181.52,75.61,211.24,105.37,211.24,142.03"/>
	<path class="st1" d="M211.24,142.03c0,36.7-29.72,66.42-66.42,66.42c-36.7,0-66.42-29.72-66.42-66.42
		c0-36.66,29.72-66.42,66.42-66.42C181.52,75.61,211.24,105.37,211.24,142.03z"/>
	<line class="st1" x1="41.25" y1="46.11" x2="83.72" y2="88.58"/>
	<line class="st1" x1="202.42" y1="207.28" x2="244.89" y2="249.78"/>
	<line class="st1" x1="44.51" y1="246.5" x2="86.98" y2="204.03"/>
	<line class="st1" x1="205.68" y1="85.34" x2="248.15" y2="42.87"/>
	<line class="st1" x1="0" y1="148.61" x2="60.08" y2="148.61"/>
	<line class="st1" x1="227.92" y1="148.61" x2="288" y2="148.61"/>
	<line class="st1" x1="143.99" y1="288.01" x2="143.99" y2="227.93"/>
	<line class="st1" x1="143.99" y1="60.07" x2="143.99" y2="-0.01"/>
	<line class="st1" x1="13.98" y1="87.16" x2="68.41" y2="112.59"/>
	<line class="st1" x1="220.54" y1="183.49" x2="274.97" y2="208.9"/>
	<line class="st1" x1="85.57" y1="274.36" x2="110.94" y2="219.9"/>
	<line class="st1" x1="181.9" y1="67.76" x2="207.27" y2="13.33"/>
	<line class="st1" x1="10.27" y1="197.59" x2="66.69" y2="177.02"/>
	<line class="st1" x1="224.44" y1="119.62" x2="280.89" y2="99.08"/>
	<line class="st1" x1="193.25" y1="279.31" x2="172.68" y2="222.86"/>
	<line class="st1" x1="115.3" y1="65.12" x2="94.76" y2="8.67"/>
</g>
</svg>
