<?xml version="1.0" encoding="utf-8"?>
<!-- Generator: Adobe Illustrator 26.0.3, SVG Export Plug-In . SVG Version: 6.00 Build 0)  -->
<svg version="1.1" id="Layer_1" xmlns="http://www.w3.org/2000/svg" xmlns:xlink="http://www.w3.org/1999/xlink" x="0px" y="0px"
	 viewBox="0 0 288 288" style="enable-background:new 0 0 288 288;" xml:space="preserve">
<style type="text/css">
	.st0{fill:#FFF200;}
	.st1{fill:none;stroke:#000000;stroke-width:6.3105;}
</style>
<g>
	<path class="st0" d="M213.9,140.68c0,36.7-29.72,66.42-66.42,66.42c-36.7,0-66.42-29.72-66.42-66.42
		c0-36.66,29.72-66.42,66.42-66.42C184.18,74.27,213.9,104.02,213.9,140.68"/>
	<path class="st1" d="M213.9,140.68c0,36.7-29.72,66.42-66.42,66.42c-36.7,0-66.42-29.72-66.42-66.42
		c0-36.66,29.72-66.42,66.42-66.42C184.18,74.27,213.9,104.02,213.9,140.68z"/>
	<line class="st1" x1="41.25" y1="46.12" x2="83.72" y2="88.59"/>
	<line class="st1" x1="202.42" y1="207.29" x2="244.89" y2="249.76"/>
	<line class="st1" x1="44.51" y1="246.51" x2="86.98" y2="204.04"/>
	<line class="st1" x1="205.68" y1="85.34" x2="248.15" y2="42.84"/>
	<line class="st1" x1="0" y1="148.62" x2="60.08" y2="148.62"/>
	<line class="st1" x1="227.92" y1="148.62" x2="288" y2="148.62"/>
	<line class="st1" x1="143.99" y1="287.99" x2="143.99" y2="227.92"/>
	<line class="st1" x1="143.99" y1="60.05" x2="143.99" y2="0.01"/>
</g>
</svg>
