<?xml version="1.0" encoding="utf-8"?>
<!-- Generator: Adobe Illustrator 26.0.3, SVG Export Plug-In . SVG Version: 6.00 Build 0)  -->
<svg version="1.1" id="Layer_1" xmlns="http://www.w3.org/2000/svg" xmlns:xlink="http://www.w3.org/1999/xlink" x="0px" y="0px"
	 viewBox="0 0 288 288" style="enable-background:new 0 0 288 288;" xml:space="preserve">
<style type="text/css">
	.st0{fill:#FFF200;}
	.st1{fill:none;stroke:#000000;stroke-width:6.3104;}
</style>
<g>
	<path class="st0" d="M211.24,142.03c0,36.7-29.75,66.42-66.42,66.42c-36.69,0-66.42-29.72-66.42-66.42
		c0-36.66,29.72-66.42,66.42-66.42C181.49,75.61,211.24,105.37,211.24,142.03"/>
	<path class="st1" d="M211.24,142.03c0,36.7-29.75,66.42-66.42,66.42c-36.69,0-66.42-29.72-66.42-66.42
		c0-36.66,29.72-66.42,66.42-66.42C181.49,75.61,211.24,105.37,211.24,142.03z"/>
	<line class="st1" x1="41.24" y1="46.12" x2="83.71" y2="88.59"/>
	<line class="st1" x1="202.41" y1="207.28" x2="244.88" y2="249.78"/>
	<line class="st1" x1="44.51" y1="246.5" x2="86.98" y2="204.03"/>
	<line class="st1" x1="205.68" y1="85.34" x2="248.15" y2="42.87"/>
	<line class="st1" x1="0" y1="148.61" x2="60.07" y2="148.61"/>
	<line class="st1" x1="227.93" y1="148.61" x2="288" y2="148.61"/>
	<line class="st1" x1="144" y1="288.01" x2="144" y2="227.93"/>
	<line class="st1" x1="144" y1="60.07" x2="144" y2="-0.01"/>
	<line class="st1" x1="13.97" y1="87.16" x2="68.4" y2="112.59"/>
	<line class="st1" x1="220.54" y1="183.49" x2="274.96" y2="208.89"/>
	<line class="st1" x1="85.57" y1="274.35" x2="110.93" y2="219.9"/>
	<line class="st1" x1="181.9" y1="67.76" x2="207.26" y2="13.33"/>
	<line class="st1" x1="10.27" y1="197.59" x2="66.72" y2="177.02"/>
	<line class="st1" x1="224.44" y1="119.62" x2="280.88" y2="99.08"/>
	<line class="st1" x1="193.26" y1="279.3" x2="172.68" y2="222.86"/>
	<line class="st1" x1="115.29" y1="65.12" x2="94.75" y2="8.68"/>
	<line class="st1" x1="25.81" y1="65.44" x2="75" y2="99.9"/>
	<line class="st1" x1="212.52" y1="196.19" x2="261.71" y2="230.61"/>
	<line class="st1" x1="63.83" y1="262.23" x2="98.28" y2="213"/>
	<line class="st1" x1="194.56" y1="75.5" x2="229.02" y2="26.31"/>
	<line class="st1" x1="2.99" y1="173.56" x2="62.15" y2="163.15"/>
	<line class="st1" x1="227.46" y1="133.97" x2="286.62" y2="123.53"/>
	<line class="st1" x1="169.01" y1="285.79" x2="158.59" y2="226.63"/>
	<line class="st1" x1="129.42" y1="61.33" x2="119.01" y2="2.2"/>
	<line class="st1" x1="6.09" y1="110.6" x2="64.09" y2="126.19"/>
	<line class="st1" x1="226.24" y1="169.59" x2="284.27" y2="185.14"/>
	<line class="st1" x1="109.09" y1="282.51" x2="124.64" y2="224.49"/>
	<line class="st1" x1="168.1" y1="62.34" x2="183.62" y2="4.31"/>
	<line class="st1" x1="21.61" y1="219.97" x2="73.64" y2="189.94"/>
	<line class="st1" x1="218.99" y1="106.02" x2="271.02" y2="75.98"/>
	<line class="st1" x1="216" y1="268.68" x2="185.97" y2="216.69"/>
	<line class="st1" x1="102.04" y1="71.31" x2="72" y2="19.31"/>
</g>
</svg>
