<?xml version="1.0" encoding="utf-8"?>
<!-- Generator: Adobe Illustrator 26.0.3, SVG Export Plug-In . SVG Version: 6.00 Build 0)  -->
<svg version="1.1" id="Layer_1" xmlns="http://www.w3.org/2000/svg" xmlns:xlink="http://www.w3.org/1999/xlink" x="0px" y="0px"
	 viewBox="0 0 288 288" style="enable-background:new 0 0 288 288;" xml:space="preserve">
<style type="text/css">
	.st0{fill:#BCBEC0;}
	.st1{fill:none;stroke:#FFF200;stroke-width:8.6719;}
	.st2{fill:none;stroke:#000000;stroke-width:4.336;}
</style>
<g>
	<line class="st0" x1="16.59" y1="176.18" x2="274.3" y2="176.18"/>
	<line class="st1" x1="16.59" y1="176.18" x2="274.3" y2="176.18"/>
	<line class="st0" x1="16.59" y1="194.52" x2="274.3" y2="194.52"/>
	<line class="st1" x1="16.59" y1="194.52" x2="274.3" y2="194.52"/>
	<line class="st0" x1="16.59" y1="212.85" x2="274.3" y2="212.85"/>
	<line class="st1" x1="16.59" y1="212.85" x2="274.3" y2="212.85"/>
	<line class="st0" x1="16.59" y1="231.17" x2="274.3" y2="231.17"/>
	<line class="st1" x1="16.59" y1="231.17" x2="274.3" y2="231.17"/>
	<path class="st0" d="M19.36,149.84h161.01c0,0,19.88-12.75,8.15-33.63c0,0-9.17-19.36-28.53-15.28c0,0,2.04-37.7-30.57-42.82
		c0,0-20.38-7.13-32.61,12.23c0,0-35.66-17.3-48.93,21.4c0,0-19.34-6.09-32.58,10.21c0,0-13.27,14.27,1,29.55
		C16.31,131.5-2.01,145.77,19.36,149.84"/>
	<path class="st2" d="M19.36,149.84h161.01c0,0,19.88-12.75,8.15-33.63c0,0-9.17-19.36-28.53-15.28c0,0,2.04-37.7-30.57-42.82
		c0,0-20.38-7.13-32.61,12.23c0,0-35.66-17.3-48.93,21.4c0,0-19.34-6.09-32.58,10.21c0,0-13.27,14.27,1,29.55
		C16.31,131.5-2.01,145.77,19.36,149.84z"/>
	<path class="st0" d="M106.13,149.84h161.01c0,0,19.86-12.75,8.17-33.63c0,0-9.19-19.36-28.55-15.28c0,0,2.04-37.7-30.57-42.82
		c0,0-20.38-7.13-32.61,12.23c0,0-35.66-17.3-48.93,21.4c0,0-19.34-6.09-32.58,10.21c0,0-13.27,14.27,1,29.55
		C103.07,131.5,84.75,145.77,106.13,149.84"/>
	<path class="st2" d="M106.13,149.84h161.01c0,0,19.86-12.75,8.17-33.63c0,0-9.19-19.36-28.55-15.28c0,0,2.04-37.7-30.57-42.82
		c0,0-20.38-7.13-32.61,12.23c0,0-35.66-17.3-48.93,21.4c0,0-19.34-6.09-32.58,10.21c0,0-13.27,14.27,1,29.55
		C103.07,131.5,84.75,145.77,106.13,149.84z"/>
</g>
</svg>
