<?xml version="1.0" encoding="utf-8"?>
<!-- Generator: Adobe Illustrator 26.0.3, SVG Export Plug-In . SVG Version: 6.00 Build 0)  -->
<svg version="1.1" id="Layer_1" xmlns="http://www.w3.org/2000/svg" xmlns:xlink="http://www.w3.org/1999/xlink" x="0px" y="0px"
	 viewBox="0 0 288 288" style="enable-background:new 0 0 288 288;" xml:space="preserve">
<style type="text/css">
	.st0{fill:#FFF200;}
	.st1{fill:none;stroke:#000000;stroke-width:4.0616;}
	.st2{fill:#BCBEC0;}
</style>
<g>
	<path class="st0" d="M137.37,141.95c0,22.79-18.48,41.27-41.29,41.27c-22.79,0-41.27-18.48-41.27-41.27
		c0-22.81,18.48-41.29,41.27-41.29C118.89,100.67,137.37,119.14,137.37,141.95"/>
	<path class="st1" d="M137.37,141.95c0,22.79-18.48,41.27-41.29,41.27c-22.79,0-41.27-18.48-41.27-41.27
		c0-22.81,18.48-41.29,41.27-41.29C118.89,100.67,137.37,119.14,137.37,141.95z"/>
	<line class="st1" x1="30.07" y1="83.16" x2="56.47" y2="109.56"/>
	<line class="st1" x1="130.24" y1="183.34" x2="156.64" y2="209.75"/>
	<line class="st1" x1="32.09" y1="207.7" x2="58.49" y2="181.3"/>
	<line class="st1" x1="132.26" y1="107.54" x2="158.66" y2="81.14"/>
	<line class="st1" x1="4.44" y1="146.87" x2="41.76" y2="146.87"/>
	<line class="st1" x1="146.09" y1="146.87" x2="183.43" y2="146.87"/>
	<line class="st1" x1="93.93" y1="233.5" x2="93.93" y2="196.17"/>
	<line class="st1" x1="93.93" y1="91.83" x2="93.93" y2="54.5"/>
	<path class="st2" d="M97.75,184.72h173.09c0,0,21.34-13.69,8.75-36.13c0,0-9.85-20.81-30.67-16.45c0,0,2.19-40.53-32.86-46.02
		c0,0-21.93-7.66-35.07,13.16c0,0-38.32-18.6-52.58,23.01c0,0-20.8-6.58-35.05,10.95c0,0-14.24,15.35,1.1,31.76
		C94.46,165,74.74,180.35,97.75,184.72"/>
	<path class="st1" d="M97.75,184.72h173.09c0,0,21.34-13.69,8.75-36.13c0,0-9.85-20.81-30.67-16.45c0,0,2.19-40.53-32.86-46.02
		c0,0-21.93-7.66-35.07,13.16c0,0-38.32-18.6-52.58,23.01c0,0-20.8-6.58-35.05,10.95c0,0-14.24,15.35,1.1,31.76
		C94.46,165,74.74,180.35,97.75,184.72z"/>
</g>
</svg>
