<?xml version="1.0" encoding="utf-8"?>
<!-- Generator: Adobe Illustrator 26.0.3, SVG Export Plug-In . SVG Version: 6.00 Build 0)  -->
<svg version="1.1" id="Layer_1" xmlns="http://www.w3.org/2000/svg" xmlns:xlink="http://www.w3.org/1999/xlink" x="0px" y="0px"
	 viewBox="0 0 288 288" style="enable-background:new 0 0 288 288;" xml:space="preserve">
<style type="text/css">
	
		.st0{fill:none;stroke:#00AEEF;stroke-width:7.345;stroke-linecap:round;stroke-linejoin:round;stroke-dasharray:18.8521,18.8521,18.8521,18.8521,18.8521,18.8521;stroke-dashoffset:37;}
	.st1{fill:#BCBEC0;}
	.st2{fill:none;stroke:#000000;stroke-width:4.8967;}
	.st3{fill:#A7A9AC;}
</style>
<g>
	<line class="st0" x1="65.12" y1="132.49" x2="67.24" y2="264.43"/>
	<line class="st0" x1="81.92" y1="132.49" x2="84.08" y2="264.43"/>
	<line class="st0" x1="98.75" y1="132.49" x2="100.91" y2="264.43"/>
	<line class="st0" x1="115.59" y1="132.49" x2="117.74" y2="264.43"/>
	<line class="st0" x1="132.42" y1="132.49" x2="134.55" y2="264.43"/>
	<line class="st0" x1="149.23" y1="132.49" x2="151.38" y2="264.43"/>
	<line class="st0" x1="166.06" y1="132.49" x2="168.22" y2="264.43"/>
	<line class="st0" x1="182.89" y1="132.49" x2="185.02" y2="264.43"/>
	<line class="st0" x1="197.02" y1="132.49" x2="199.18" y2="264.43"/>
	<line class="st0" x1="213.86" y1="132.49" x2="216.01" y2="264.43"/>
	<line class="st0" x1="230.69" y1="132.49" x2="232.84" y2="264.43"/>
	<line class="st0" x1="247.52" y1="132.49" x2="249.65" y2="264.43"/>
	<line class="st0" x1="264.33" y1="132.49" x2="266.48" y2="264.43"/>
	<path class="st1" d="M20.71,128.61h181.84c0,0,22.45-14.39,9.21-38c0,0-10.36-21.84-32.24-17.26c0,0,2.33-42.58-34.52-48.33
		c0,0-22.99-8.06-36.82,13.81c0,0-40.25-19.56-55.23,24.16c0,0-21.84-6.9-36.8,11.51c0,0-14.98,16.11,1.13,33.37
		C17.26,107.87-3.45,124.01,20.71,128.61"/>
	<path class="st2" d="M20.71,128.61h181.84c0,0,22.45-14.39,9.21-38c0,0-10.36-21.84-32.24-17.26c0,0,2.33-42.58-34.52-48.33
		c0,0-22.99-8.06-36.82,13.81c0,0-40.25-19.56-55.23,24.16c0,0-21.84-6.9-36.8,11.51c0,0-14.98,16.11,1.13,33.37
		C17.26,107.87-3.45,124.01,20.71,128.61z"/>
	<path class="st3" d="M83.79,157.7H265.6c0,0,22.45-14.37,9.23-37.97c0,0-10.38-21.86-32.24-17.26c0,0,2.3-42.6-34.52-48.33
		c0,0-23.01-8.05-36.82,13.81c0,0-40.28-19.56-55.26,24.16c0,0-21.84-6.91-36.8,11.53c0,0-14.96,16.09,1.13,33.35
		C80.31,136.99,59.62,153.12,83.79,157.7"/>
	<path class="st2" d="M83.79,157.7H265.6c0,0,22.45-14.37,9.23-37.97c0,0-10.38-21.86-32.24-17.26c0,0,2.3-42.6-34.52-48.33
		c0,0-23.01-8.05-36.82,13.81c0,0-40.28-19.56-55.26,24.16c0,0-21.84-6.91-36.8,11.53c0,0-14.96,16.09,1.13,33.35
		C80.31,136.99,59.62,153.12,83.79,157.7z"/>
</g>
</svg>
